<?xml version="1.0" encoding="UTF-8"?>
<svg id="Layer_1" data-name="Layer 1" xmlns="http://www.w3.org/2000/svg" viewBox="0 0 1200 1200">
  <defs>
    <style>
      .cls-1 {
        fill: #d52a1e;
      }
    </style>
  </defs>
  <path class="cls-1" d="M929.71,685.42c-6.67,13.21-15.6,24.77-24.81,36.23-12.16,15.14-23.89,30.61-35.89,45.88-5.17,6.58-6.95,6.41-14.23,1.91-12.17-7.51-25.18-13.39-38.58-18.37-34.2-12.71-68.79-24.29-103.66-34.97-30.65-9.39-62-16.03-93.45-22.27-12.31-2.45-24.95-4.87-35.67-12.45-9.86-6.97-12.17-12.79-9.52-24.46,3.88-17.09,10.99-33.09,16.79-49.52,4.91-13.92,4.35-15.8-10.09-15.34-16.61.53-33.19,1.91-49.79,2.83-2.71.15-4.33.87-4.87,3.89-4.36,24.51-19.77,42.42-36.32,59.42-8.97,9.22-18.87,17.54-28.36,26.26-18.05,16.57-39.6,25.17-63.71,27.89-13.78,1.55-27.51,3.13-41.44,3.36-14.73.24-27.77-3.91-39.67-12.09-10.45-7.17-20.59-14.75-29.57-23.8-7.74-7.79-7.01-15.52,2.84-20.48,10.51-5.3,22.11-7.55,33.59-9.48,25.77-4.35,51.63-8.12,77.26-13.39,12.6-2.59,25.39-4.08,37.48-8.94,5.77-2.32,11.13-5.23,16.21-8.64,6.78-4.57,9.51-11.38,9.65-19.41.04-2.52-.76-3.45-3.44-3.4-9.32.16-18.64.06-27.96.06-27.35.75-54.52,3.8-81.76,5.88-14.49,1.11-28.68,3.35-42.84,6.42-10.51,2.28-16.25-2.44-16.21-13.06.04-11.71,3.05-22.91,8.51-33.11,4.99-9.32,14.02-14.83,24.24-15.25,40.37-1.67,80.63-6.3,121.12-5.17,33.27.93,66.54,2.24,99.82,2.94,32.51.68,65.03-.73,97.55-.99,26.05-.21,51.83,1.99,77.7,3.78,29.95,2.08,59.89,1.1,89.71-1.45,14.54-1.25,28.91-4.73,43.25-7.73,9.31-1.95,13.26,1.1,12.36,10.5-1.34,14.06-5.43,27.02-13.38,38.9-5.74,8.57-11.47,17.13-17.37,25.59-3.12,4.47-6.88,5.72-11.74,2.94-21.15-12.06-44.15-18.44-68.03-22.12-3.72-.57-7.48-1.31-11.21-1.27-28.2.36-56.23-2.86-84.38-3.55-.4,0-.79-.06-1.19-.06-14.68-.16-16.66,1.29-20.17,15.3-2.41,9.6-5.7,18.99-6.69,28.95-.29,2.89.03,4.1,3.23,4.79,20.91,4.56,41.9,8.32,63.33,9.67,12.62.8,25.15,2.78,37.74,4.09,18.53,1.93,37.17,1.79,55.75,2.66,23.55,1.1,47.12,3.03,70.7,1.82,17.57-.9,34.84.2,51.98,3.92,1.93.42,3.88.86,5.75,1.48,11.52,3.77,14.89,12.62,9.44,23.42ZM793.55,858.56c16.09,18,21.09,38.24,16.04,61.17-4.53,20.57-10.83,40.55-23.1,58.18-7.45,10.7-17.07,18.14-29.54,21.77-19.3,5.62-39.12,8.29-59.07,10.35-14.57,1.51-29.02,4.22-43.59,5.78-28.81,3.07-57.74,2.47-86.65,1.9-23.4-.46-35.67-15.55-45.08-34.32-5.29-10.54-7.88-21.55-5.15-33.37,1.71-7.41,6.11-11.64,13.58-13.08,10.9-2.11,21.48-.6,31.42,3.81,10.46,4.64,20.92,6.01,32.38,5.09,28.66-2.29,57.38-3.75,86.01-6.43,7.55-.71,14.95-2.05,22.22-3.94,5.92-1.54,10.31-5.17,12.97-11.21,4.59-10.43,7.94-21.12,8.91-32.45.63-7.35-.96-8.51-8.28-8.6-9.7-.13-19.4-.82-29.1-.99-22.44-.41-44.64,2.17-66.89,4.94-25.55,3.18-51.27,5.28-77.11,4.43-16.64-.54-31.67-5.36-45.46-14.98-8.25-5.76-17.57-9.95-26.26-15.1-2.7-1.6-3.25-.43-4.16,1.73-14.44,34.08-36.28,63.12-62.58,88.68-14.87,14.45-32.9,24.01-54.28,25.7-13.64,1.08-26.01-3-37.27-9.99-16.28-10.11-15.81-29.13.49-39.11,5.59-3.42,11.22-6.91,17.42-8.97,14.43-4.79,25.28-14.77,35.97-24.74,14.49-13.51,28.11-27.96,42.61-41.46,7.02-6.53,11.41-13.73,12.94-23.24,1.6-9.92,6.47-19.13,6.67-29.47.08-3.84-.35-5.02-4.79-4.62-18.75,1.71-37.58,1.58-56.39,1.14-5.14-.12-10.27.13-15.38-.76-11.51-2.01-15.75-10.81-10.07-21.07,5.8-10.48,14.11-19.11,21.47-28.41,3.69-4.66,9.82-6.95,15.43-8.43,16.88-4.47,34.23-6.07,51.63-7.58,18.41-1.59,36.82-1.75,55.24-2.06,22.99-.39,46-.09,69-.09,0-.1,0-.21,0-.31,36.46.53,72.93.91,109.39,1.65,24.82.51,49.33,4.36,73.88,7.63,5.55.74,10.62,3.18,15.88,4.91,9.54,3.13,17.21,19.39,15.52,28.75-2.91,16.12-13.69,27.47-21.45,40.66-2.33,3.96-4.36,7.91-5.51,12.39-1.13,4.41.15,6.38,4.74,7.52,17.67,4.4,32.85,12.61,45.36,26.6ZM687.2,789.9c-4.31-.48-8.66-.9-13-.92-23.96-.09-47.92-.04-71.88-.04-29.08.62-58.21.5-87.28,2.31-14.85.92-28.24,5.43-40.72,13.09-5.32,3.26-9.99,14.55-7.48,19.95,2.4,5.18,8.4,4.57,13.04,4.5,19.21-.29,38.47-.25,57.59-1.86,39.89-3.35,79.81-5.51,119.81-6.64,6.54-.19,13,1.24,19.59.59,3.96-.39,6.92-2.03,8.62-5.41,2.92-5.84,5.63-11.78,7.05-18.22,1-4.53-1.04-6.86-5.33-7.34ZM1079.22,954.82c-.26,29.88.94,59.91-3.03,89.7-.81,6.09-1.85,12.11-4.61,17.75-6.53,13.32-17.57,19.59-31.91,20.12-26.95,1-53.92.79-80.9.56-21.99-.19-43.98,1.01-65.98,1.18-23.6.18-47.19-.79-70.78-1.32-22.58-.5-45.13-3.7-67.62-2.62-32.01,1.53-63.81-.7-95.7-1.93-23.77-.92-47.53-2.29-71.3-2.75-18.63-.36-37.29.75-55.93.5-27.74-.37-55.48-1.47-83.22-2.05-20.63-.43-41.18,2.35-61.83,1.94-19.63-.39-39.26-.78-58.89-.73-32.85.09-65.71,2.26-98.53-.33-22.53-1.78-45.12-2.8-67.56-5.78-16.59-2.2-31.39-8.02-43.09-20.46-6.06-6.44-9.43-14.01-10.46-22.82-2.1-17.95-2.71-35.94-2.25-53.98.69-26.78-1.83-53.53-.78-76.37-1.15-43.61.98-83.26,1.54-122.91.69-48.95,1.77-97.91,2.66-146.86.75-41.63,1.18-83.26,1.69-124.9.23-19.04-.9-38.07-.9-57.07,0-21.96,2.57-43.91,3.28-65.89,1.01-31.31,2.05-62.64,1.72-93.95-.23-21.83,1.18-43.57,1.17-65.34,0-24.12,2.15-47.92,6.67-71.49,3.12-16.28,12.45-28.83,26.09-38.32,9.4-6.54,20.34-7.59,30.81-6.99,20.69,1.19,41.22-1.53,61.83-.94,38.25,1.08,76.51-.6,114.77,1.06,28.12,1.22,56.28-.59,84.42-.64,26.22-.05,52.23-4.2,78.44-3.11,22.79.94,45.57,2,68.38,1.83,56.92-.42,113.84-.82,170.76-1.44,38.05-.42,76.1-1.35,114.15-1.74,12.68-.13,25.37,1.18,38.05,1.01,33.31-.44,66.61-2.04,99.94-.89,7.56.26,14.98,1.33,22.28,3.42,18.69,5.35,28.81,17.96,29.58,37.59,1.23,31.31,1.16,62.68,3.57,93.93,2.52,32.68.05,65.45,1.91,98.1,3.33,58.68.84,117.37,1.24,176.05.31,45.85,3.99,91.52,5.91,137.28,1.11,26.51-.16,53.09.51,79.65.74,29.13,1.05,58.26,1.84,87.39,1.31,48.18,2.47,96.39,2.05,144.57ZM620.55,213.15c-8.6.53-10.83,3.44-9.01,11.95.99,4.63,2.03,9.26,3.39,13.79,1.82,6.04,14.67,10.92,20.19,7.84,1.37-.76,1.75-2.08,1.9-3.49.57-5.3,1.64-10.61,1.58-15.9-.13-12.42-1.99-14.24-12.72-14.2-1.78,0-3.57-.09-5.34.02ZM531.26,155.53c.1,3.63,1.25,5.35,5.25,5.25,23.91-.6,47.86.23,71.75-1.21,11.03-.66,11.29-1.42,7.45-11.54-.42-1.11-.79-2.24-1.21-3.35-2.17-5.69-6.17-9.21-12.36-9.44-6.72-.24-13.45-.06-20.17-.06-12.84.34-25.75.45-38.34,3.37-7.82,1.81-12.58,8.91-12.37,16.98ZM1030.85,879.03c-2.15-26.94.06-53.87-.98-80.83-2.1-54.26-1.21-108.61-4.83-162.85-2.46-36.86,1.09-73.71.94-110.59-.14-35.09-1.21-70.17-1.11-105.27.07-27.14-.99-54.31-2.31-81.43-2.05-42.21-1.59-84.46-2.35-126.68-.32-17.61.8-35.24-.37-52.88-.73-10.98-6.06-15.69-16.21-16.79-25.63-2.77-51.32-4.56-77.14-3.9-18.23.47-36.49,1.94-54.7.77-31.88-2.06-63.8-1.84-95.7-2.14-21.4-.2-42.82.73-64.22.37-10.61-.18-20.91,1.18-31.31,2.68-5.17.74-5.81,2.86-3.28,6.99,2.89,4.74,5.4,9.72,8.46,14.34,3.38,5.12,8.39,7.86,14.57,7.76,32.59-.52,64.89,3.63,97.32,5.74,4.13.27,8.27.94,12.33,1.79,4.4.93,6.72,3.93,6.99,8.45.14,2.37.35,4.74.41,7.12.37,13.57-6.26,21.8-19.53,24.11-7.39,1.29-15.02.78-22.29,3.18-3.02,1-4.52,2.24-3.07,5.44,3.67,8.08,3.98,16.92,5.8,25.42,2.61,12.16.58,23.76-4.8,34.66-3.6,7.3-7.53,8.3-15.21,5.52-5.81-2.11-11.73-3.89-17.92-3.9-17.12-.02-33.87,3.14-50.59,6.38-2.24.43-6.21-.05-6.07,3.2.11,2.57,3.2,4.32,6,5.11,1.14.32,2.33.51,3.51.61,12.79,1.14,25.61,2.05,38.38,3.4,35.23,3.73,70.34,9.04,105.95,7.49,4.29-.19,8.63.41,10.77,4.76,2.14,4.35-.1,8.23-2.77,11.49-3.76,4.58-7.8,8.96-11.98,13.17-6.57,6.62-13.36,13.01-22.85,15.29-5.82,1.11-11.56,2.37-17.62,1.16-2.79-.56-6.23-2.11-8.58,1.37,16.3,5.47,31.82,13.18,48.8,16.75,5.22,1.1,10.19,3.19,15.03,5.55,5.31,2.6,7.51,6.57,7,12.44-1.21,13.91-6.12,26.61-12.71,38.68-5.22,9.57-12.11,10.94-21.19,4.82-1.8-1.22-3.55-2.55-5.16-4.02-14.33-13.16-30.08-24.48-46.12-35.37-15.24-10.34-12.57-9.01-22.22,3.88-5.99,8-5.09,13,4.14,17.36,7.66,3.62,13.84,9.18,20.89,13.54,7.08,4.38,10.67,10.66,11.84,18.9.71,4.99.79,9.88.21,14.79-1.6,13.59-3.89,27.07-6.64,40.47-1.28,6.22-5.67,8.36-11.61,5.61-7.34-3.41-12.06-9.29-15.72-16.4-4.9-9.51-10-18.99-17.82-26.52-8.01-7.71-15.82-15.57-22.25-24.69-9.89-14.02-18.76-28.39-19.62-46.37-.27-5.58,1.13-9.78,5.26-13.07,4.08-3.25,7.2-7.33,10.67-11.13,2.3-2.52,2.73-4.98.62-7.36-7.99-9.04-13.04-22.47-29.02-19.92-.54.09-1.14-.31-1.72-.42-8-1.42-15.99-2.98-24.16-2.82-1.43.03-4.34-1.18-3.23,2.19,3.05,9.28-3.15,13.93-9.15,18.56-5,3.86-10.94,6.52-15.17,11.39-1.2,1.38-3.32,2.83-1.77,5.09,2.88,4.22,5.44,8.77,10.15,11.39,3.71,2.07,6.13,2.04,6.96-3.09,1.07-6.62,2.75-13.13,4.18-19.69,2.09-9.56,11.48-16.38,21.51-15.65,11.93.86,17.41,5.58,18.01,17.18,1.22,23.33,1.97,46.68,2.69,70.03.2,6.53-.36,13.08-.61,19.62-.29,7.4.41,8.25,7.97,8.01,4.74-.15,9.48-.71,14.2-1.19,8.78-.89,15.73,4.46,16.85,13.05,1.63,12.55-1.05,24.42-5.62,36.01-1.53,3.87-4.25,5.93-8.52,6.27-7.54.6-15.01-.14-22.52-.34-30.85-.84-61.67,1.06-92.41,3.38-32.99,2.49-65.89,5.88-99.06,4.95-9.47-.26-18.94-.81-28.5.3-9.39,1.09-18.98,1.54-28.44-.61-9.38-2.14-16.35-6.83-18.82-16.67-1.36-5.42-1.66-10.91-1.52-16.51.29-11.72,5.02-16.34,19.04-13.76,11.92,2.19,23.79,4.11,35.91,3.75,12.05-.36,24.02-2.07,36.13-1.93,11.26.13,22.55-.26,33.78-1.03,11.62-.8,23.21-2.36,34.81-3.29,18.18-1.46,36.27-3.46,54-7.58,17.68-4.1,18.51-.68,15.13-21.78-.27-1.68.39-4.24-1.71-4.53-1.34-.18-3,1.59-4.41,2.63-.78.58-1.28,1.53-2.03,2.16-18.35,15.28-38.95,24.15-63.33,22.11-6.18-.52-11.34-3.11-15.48-7.89-3.41-3.93-6.15-8.26-8.71-12.73-3.33-5.8-1.96-10.39,4.21-12.83,3.1-1.23,6.53-2.52,9.75-2.38,8.68.38,16.04-4.17,24.19-5.67,3.57-.66,3.81-2.62,1.6-5.44-3.05-3.89-5.98-7.91-8.66-12.06-1.61-2.49-3.59-3.4-6.4-3.16-11.65,1.02-23.32,1.95-34.97,3.04-5.3.5-8.24,3.04-7.71,8.95.78,8.66-1.51,16.89-4.42,24.93-2.42,6.68-8.71,10.77-16.78,11.05-7.57.27-14.66-1.31-18.1-8.73-2.72-5.86-4.67-12.17-5.46-18.74-1.52-12.57-3.23-25.12-4.74-37.69-.46-3.82-2.11-5.62-6.16-5.25-15.25,1.42-30.44-.93-45.68-.87-5.63.02-8.37,2.01-11.1,6.7-6.91,11.87-12.2,25.03-25.02,32.55-4.32,2.54-8.95,4.14-13.39,6.28-20.54,9.9-42.41,13.57-65.01,13.73-11.12.08-19.31-3.96-25.26-14.25-6.96-12.05-12.28-24.85-18.94-37.01-4.03-7.35-.15-12.24,8.37-11.53,7.68.64,15.43,2.29,23.04,1.77,19.44-1.32,38.6-4.68,56.07-13.93,24.59-13.02,32.2-30.02,29.3-56.07-1.99-17.84-10.17-33.63-16.98-49.86-5.16-12.28-2.03-16.99,11.48-16.46,8.71.34,17.38,1.17,26.11.05,14.57-1.88,29.25-1.83,43.89-1.84,19.4-.01,38.75.65,57.91-3.68,9.41-2.13,16.54,3.57,17.23,13.15,1.14,15.75,2,31.52,2.84,47.3.42,7.97,1.55,9.17,9.36,7.7,9.92-1.88,19.77-4.04,29.53-6.76,14.68-4.1,29.27-8.73,44.49-10.62,1.2.01,2.4.03,3.6.04,2.01.13,4.05.49,7.26-1.03-3.28-.17-5.21-.27-7.15-.37,0,0,0,0,0,0-3.12-1.43-6.38-1.37-9.68-.89h0s0,0,0,0c-5.96-.51-11.88-.43-17.7,1.12-8.44,2.25-16.97,3.52-25.74,3.71-8.51.18-12.44-2.12-15.13-10.22-1.78-5.36-1.99-10.93-1.39-16.47.57-5.33,3.67-8.57,9.13-9.42,4.3-.67,8.59-1.48,12.87-2.31,3.43-.67,5.02-2.21,4.04-6.23-2.41-9.8-4.45-19.7-6.41-29.61-.63-3.2-2.26-4.47-5.28-5.42-6.95-2.18-14.07-1.92-21.17-2.35-8.8-.53-8.79-.57-10.22,7.78-1.82,10.67-7.27,15.4-18.11,15.68-3.37.09-6.74.04-10.11.13-9.2.23-12.92-2.46-15.76-11.18-1.04-3.19-.62-6.2.22-9.34.98-3.67.13-6.22-4.39-6.3-15.64-.28-31.28-1.08-46.9-.85-14.44.21-28.86,1.69-43.31,2.22-6.78.25-13.79-.42-18.58-6.05-4.61-5.42-8.84-11.22-12.74-17.17-3.65-5.56-6.91-12-2.86-18.33,4.15-6.49,11.44-6.21,18.31-5.58,8.28.76,16.52,1.08,24.89.6,10.28-.59,20.53-2.44,30.86-1.51,10.37.93,20.6-.38,30.76-1.97,14.55-2.28,19.03-7.01,18.53-18.65-.19-4.52-1.89-7.09-7.02-7.67-9.91-1.13-19.79-.66-29.68-.53-32.89.41-65.57,4.51-98.51,4.87-34.28.38-68.53,2.79-102.82,3.88-17.42.55-34.8-1.75-52.26.43-18.88,2.35-30.98,15.1-29.63,34.07,2.13,30,.05,59.89-1.76,89.75-2.41,39.76-4.36,79.44-3.39,119.33.91,37.65.29,75.35-.66,113.02-.75,29.9-1.24,59.78-.62,89.71.59,28.31-1.5,56.67-1.86,85.02-.71,55.51-.54,111.04-1.77,166.53-.56,25.35-2.9,50.68-2.1,76.07.52,16.63,1.79,33.25,2.86,49.86.84,13.05,1.67,26.11,2.9,39.13.74,7.8,4.02,10.77,11.65,11.85,7.85,1.1,15.71,1.96,23.63,2.56,12.29.94,24.6.08,36.85,1.1,22.34,1.86,44.71,3.23,67.13,3.24,18.64.01,37.24,1.29,55.9.64,22.39-.77,44.9-2.54,67.17-1.05,42.16,2.82,84.36,4.07,126.54,6.01,35.8,1.64,71.64,2.35,107.44,3.85,32.7,1.37,65.41.1,98.11.67,30.12.52,60.29-1.11,90.41-.47,31.72.68,63.44.79,95.15,1.6,24.98.64,49.92.9,74.85-.61,10.96-.66,17.11-6.75,17.77-17.07.88-13.85,1.88-27.7,2.23-41.56.86-33.93-.61-67.82-3.31-101.63ZM548.31,348.18c-16.62.45-16.6,1.04-16.27,17.55.17,8.4.99,8.86,9.41,6.55,16.52-4.53,29.05-16.6,44.55-23.54-12.64-1.98-25.2-.9-37.69-.56ZM433.69,345.95c-.14,3.26,2,4.65,5.02,4.35,10.15-1.01,20.14,1.74,30.26.91,3.96,0,7.92.08,11.88-.03,3.07-.08,5.26-1.5,6.08-4.66,2.46-9.43-.27-13.17-9.86-13.4-1.58-.04-3.18.07-4.73.34-11.5,1.98-22.96,4.19-34.49,5.93-4.43.67-4.04,3.75-4.16,6.55ZM435.87,304.26c.79,2.64,1.65,3.7,4.88,3.38,14.17-1.42,27.98-4.89,42.46-6.65-5.19-13.42-5.39-13.63-19.01-12.29-6.49.64-13.02.33-19.51,1.46-12.28,2.13-12.4,2.14-8.83,14.11ZM696.84,251.24c7.09.65,14.21.85,21.32,1.25,0-.11,0-.22,0-.33,1.78,0,3.59-.19,5.34.04,5.87.76,7.38-1.89,6.29-7.27-1.68-8.34-3.09-16.74-4.61-25.11-.45-2.49-1.21-4.23-4.4-4.52-8.34-.77-16.61-.37-24.91.33-2,.17-3.41.65-3.81,2.86-1.33,7.4-3.17,14.73-3.97,22.18-.8,7.38,1.53,9.9,8.73,10.57Z"/>
</svg>